<svg width="1800" height="500" viewBox="0 0 1800 500" fill="none" xmlns="http://www.w3.org/2000/svg">
<rect width="1800" height="500" fill="black"/>
<path d="M570.299 245.213V250.536C570.299 259.074 569.142 266.737 566.827 273.526C564.513 280.315 561.247 286.102 557.029 290.885C552.812 295.617 547.771 299.243 541.908 301.763C536.096 304.283 529.642 305.543 522.544 305.543C515.498 305.543 509.043 304.283 503.18 301.763C497.368 299.243 492.327 295.617 488.059 290.885C483.79 286.102 480.472 280.315 478.106 273.526C475.792 266.737 474.635 259.074 474.635 250.536V245.213C474.635 236.624 475.792 228.96 478.106 222.223C480.421 215.434 483.687 209.647 487.904 204.864C492.173 200.081 497.214 196.429 503.025 193.909C508.889 191.389 515.343 190.129 522.39 190.129C529.487 190.129 535.942 191.389 541.754 193.909C547.617 196.429 552.658 200.081 556.875 204.864C561.144 209.647 564.436 215.434 566.75 222.223C569.116 228.96 570.299 236.624 570.299 245.213ZM546.923 250.536V245.059C546.923 239.092 546.383 233.846 545.303 229.32C544.223 224.794 542.628 220.988 540.52 217.902C538.411 214.816 535.839 212.502 532.805 210.959C529.77 209.365 526.299 208.567 522.39 208.567C518.481 208.567 515.009 209.365 511.975 210.959C508.992 212.502 506.446 214.816 504.337 217.902C502.28 220.988 500.711 224.794 499.631 229.32C498.551 233.846 498.011 239.092 498.011 245.059V250.536C498.011 256.451 498.551 261.697 499.631 266.274C500.711 270.8 502.305 274.632 504.414 277.77C506.523 280.855 509.094 283.196 512.129 284.79C515.163 286.384 518.635 287.182 522.544 287.182C526.453 287.182 529.924 286.384 532.959 284.79C535.993 283.196 538.539 280.855 540.597 277.77C542.654 274.632 544.223 270.8 545.303 266.274C546.383 261.697 546.923 256.451 546.923 250.536ZM628.043 220.525V236.264H579.439V220.525H628.043ZM591.475 199.927H613.693V278.85C613.693 281.267 614.002 283.118 614.619 284.404C615.288 285.69 616.265 286.59 617.551 287.104C618.837 287.567 620.457 287.799 622.411 287.799C623.8 287.799 625.034 287.747 626.114 287.645C627.246 287.49 628.197 287.336 628.969 287.182L629.046 303.537C627.143 304.154 625.086 304.643 622.874 305.003C620.662 305.363 618.219 305.543 615.545 305.543C610.659 305.543 606.39 304.746 602.738 303.151C599.138 301.506 596.361 298.882 594.406 295.282C592.452 291.682 591.475 286.95 591.475 281.087V199.927ZM683.164 220.525V236.264H634.56V220.525H683.164ZM646.596 199.927H668.814V278.85C668.814 281.267 669.123 283.118 669.74 284.404C670.409 285.69 671.386 286.59 672.672 287.104C673.958 287.567 675.578 287.799 677.532 287.799C678.921 287.799 680.155 287.747 681.235 287.645C682.367 287.49 683.318 287.336 684.09 287.182L684.167 303.537C682.264 304.154 680.207 304.643 677.995 305.003C675.783 305.363 673.34 305.543 670.666 305.543C665.78 305.543 661.511 304.746 657.859 303.151C654.259 301.506 651.482 298.882 649.527 295.282C647.573 291.682 646.596 286.95 646.596 281.087V199.927ZM735.816 305.543C729.336 305.543 723.524 304.514 718.381 302.457C713.237 300.348 708.866 297.442 705.265 293.739C701.717 290.036 698.991 285.742 697.088 280.855C695.185 275.918 694.233 270.672 694.233 265.117V262.031C694.233 255.705 695.133 249.919 696.933 244.673C698.733 239.427 701.305 234.875 704.648 231.018C708.043 227.16 712.157 224.203 716.992 222.146C721.827 220.037 727.278 218.982 733.347 218.982C739.262 218.982 744.508 219.96 749.086 221.914C753.663 223.868 757.495 226.646 760.581 230.246C763.718 233.846 766.084 238.167 767.678 243.207C769.273 248.196 770.07 253.751 770.07 259.871V269.129H703.722V254.316H748.237V252.619C748.237 249.533 747.671 246.782 746.54 244.364C745.46 241.896 743.814 239.941 741.602 238.501C739.391 237.061 736.562 236.341 733.116 236.341C730.184 236.341 727.664 236.984 725.555 238.27C723.447 239.555 721.724 241.355 720.386 243.67C719.101 245.984 718.123 248.71 717.455 251.848C716.838 254.934 716.529 258.328 716.529 262.031V265.117C716.529 268.46 716.992 271.546 717.918 274.375C718.895 277.204 720.258 279.647 722.007 281.704C723.807 283.761 725.967 285.356 728.487 286.487C731.059 287.619 733.965 288.185 737.205 288.185C741.217 288.185 744.945 287.413 748.391 285.87C751.889 284.276 754.898 281.884 757.418 278.695L768.219 290.422C766.47 292.942 764.078 295.359 761.044 297.674C758.061 299.988 754.46 301.891 750.243 303.383C746.025 304.823 741.217 305.543 735.816 305.543ZM806.521 238.732V304H784.302V220.525H805.21L806.521 238.732ZM831.672 219.985L831.286 240.584C830.206 240.43 828.894 240.301 827.351 240.198C825.86 240.044 824.497 239.967 823.262 239.967C820.125 239.967 817.399 240.378 815.085 241.201C812.822 241.973 810.919 243.13 809.376 244.673C807.884 246.216 806.753 248.093 805.981 250.305C805.261 252.516 804.85 255.036 804.747 257.865L800.272 256.477C800.272 251.076 800.812 246.113 801.892 241.587C802.972 237.009 804.541 233.023 806.598 229.629C808.707 226.234 811.279 223.611 814.313 221.76C817.348 219.908 820.819 218.982 824.728 218.982C825.963 218.982 827.223 219.085 828.508 219.291C829.794 219.445 830.849 219.677 831.672 219.985ZM929.801 263.96H901.179V245.907H929.801C934.224 245.907 937.825 245.187 940.602 243.747C943.379 242.256 945.411 240.198 946.697 237.575C947.983 234.952 948.626 231.995 948.626 228.703C948.626 225.36 947.983 222.248 946.697 219.368C945.411 216.488 943.379 214.174 940.602 212.425C937.825 210.676 934.224 209.802 929.801 209.802H909.203V304H886.058V191.672H929.801C938.596 191.672 946.131 193.266 952.406 196.455C958.732 199.592 963.567 203.938 966.91 209.493C970.253 215.048 971.924 221.4 971.924 228.549C971.924 235.801 970.253 242.076 966.91 247.373C963.567 252.671 958.732 256.759 952.406 259.64C946.131 262.52 938.596 263.96 929.801 263.96ZM1011.54 185.5V304H989.243V185.5H1011.54ZM1076.53 285.176V247.99C1076.53 245.316 1076.1 243.027 1075.22 241.124C1074.35 239.17 1072.99 237.652 1071.13 236.572C1069.33 235.492 1066.99 234.952 1064.11 234.952C1061.64 234.952 1059.51 235.389 1057.71 236.264C1055.91 237.087 1054.52 238.295 1053.54 239.89C1052.57 241.433 1052.08 243.258 1052.08 245.367H1029.86C1029.86 241.818 1030.68 238.45 1032.33 235.261C1033.97 232.072 1036.37 229.269 1039.5 226.852C1042.64 224.383 1046.37 222.454 1050.69 221.065C1055.06 219.677 1059.95 218.982 1065.35 218.982C1071.83 218.982 1077.59 220.062 1082.63 222.223C1087.67 224.383 1091.63 227.623 1094.51 231.943C1097.44 236.264 1098.91 241.664 1098.91 248.145V283.864C1098.91 288.442 1099.19 292.196 1099.76 295.128C1100.32 298.008 1101.14 300.528 1102.22 302.688V304H1079.77C1078.69 301.737 1077.87 298.908 1077.31 295.514C1076.79 292.068 1076.53 288.622 1076.53 285.176ZM1079.47 253.159L1079.62 265.734H1067.2C1064.27 265.734 1061.72 266.069 1059.56 266.737C1057.4 267.406 1055.63 268.357 1054.24 269.592C1052.85 270.775 1051.82 272.163 1051.15 273.758C1050.54 275.352 1050.23 277.101 1050.23 279.004C1050.23 280.907 1050.66 282.63 1051.54 284.173C1052.41 285.664 1053.67 286.847 1055.32 287.722C1056.96 288.545 1058.89 288.956 1061.1 288.956C1064.45 288.956 1067.35 288.287 1069.82 286.95C1072.29 285.613 1074.19 283.967 1075.53 282.013C1076.92 280.058 1077.64 278.207 1077.69 276.458L1083.56 285.87C1082.73 287.979 1081.6 290.165 1080.16 292.428C1078.77 294.691 1077 296.825 1074.84 298.831C1072.68 300.785 1070.08 302.406 1067.05 303.691C1064.01 304.926 1060.41 305.543 1056.24 305.543C1050.95 305.543 1046.14 304.489 1041.82 302.38C1037.55 300.22 1034.15 297.262 1031.63 293.508C1029.17 289.702 1027.93 285.382 1027.93 280.547C1027.93 276.175 1028.75 272.292 1030.4 268.897C1032.05 265.503 1034.46 262.648 1037.65 260.334C1040.89 257.968 1044.93 256.194 1049.76 255.011C1054.6 253.776 1060.2 253.159 1066.58 253.159H1079.47ZM1141.14 294.588L1163.29 220.525H1187.13L1153.57 316.575C1152.85 318.684 1151.87 320.947 1150.63 323.364C1149.45 325.782 1147.83 328.07 1145.77 330.23C1143.77 332.442 1141.22 334.242 1138.14 335.631C1135.1 337.02 1131.37 337.714 1126.95 337.714C1124.84 337.714 1123.12 337.585 1121.78 337.328C1120.44 337.071 1118.85 336.711 1117 336.248V319.97C1117.56 319.97 1118.15 319.97 1118.77 319.97C1119.39 320.021 1119.98 320.047 1120.55 320.047C1123.48 320.047 1125.87 319.713 1127.72 319.044C1129.57 318.375 1131.06 317.347 1132.2 315.958C1133.33 314.621 1134.23 312.872 1134.9 310.712L1141.14 294.588ZM1131.89 220.525L1150.02 281.01L1153.18 304.54L1138.06 306.16L1108.05 220.525H1131.89ZM1234.92 305.543C1228.44 305.543 1222.62 304.514 1217.48 302.457C1212.34 300.348 1207.97 297.442 1204.37 293.739C1200.82 290.036 1198.09 285.742 1196.19 280.855C1194.29 275.918 1193.33 270.672 1193.33 265.117V262.031C1193.33 255.705 1194.23 249.919 1196.03 244.673C1197.83 239.427 1200.41 234.875 1203.75 231.018C1207.14 227.16 1211.26 224.203 1216.09 222.146C1220.93 220.037 1226.38 218.982 1232.45 218.982C1238.36 218.982 1243.61 219.96 1248.19 221.914C1252.76 223.868 1256.6 226.646 1259.68 230.246C1262.82 233.846 1265.19 238.167 1266.78 243.207C1268.37 248.196 1269.17 253.751 1269.17 259.871V269.129H1202.82V254.316H1247.34V252.619C1247.34 249.533 1246.77 246.782 1245.64 244.364C1244.56 241.896 1242.91 239.941 1240.7 238.501C1238.49 237.061 1235.66 236.341 1232.22 236.341C1229.29 236.341 1226.77 236.984 1224.66 238.27C1222.55 239.555 1220.82 241.355 1219.49 243.67C1218.2 245.984 1217.22 248.71 1216.56 251.848C1215.94 254.934 1215.63 258.328 1215.63 262.031V265.117C1215.63 268.46 1216.09 271.546 1217.02 274.375C1218 277.204 1219.36 279.647 1221.11 281.704C1222.91 283.761 1225.07 285.356 1227.59 286.487C1230.16 287.619 1233.07 288.185 1236.31 288.185C1240.32 288.185 1244.05 287.413 1247.49 285.87C1250.99 284.276 1254 281.884 1256.52 278.695L1267.32 290.422C1265.57 292.942 1263.18 295.359 1260.14 297.674C1257.16 299.988 1253.56 301.891 1249.34 303.383C1245.13 304.823 1240.32 305.543 1234.92 305.543ZM1305.62 238.732V304H1283.4V220.525H1304.31L1305.62 238.732ZM1330.77 219.985L1330.39 240.584C1329.31 240.43 1328 240.301 1326.45 240.198C1324.96 240.044 1323.6 239.967 1322.36 239.967C1319.23 239.967 1316.5 240.378 1314.19 241.201C1311.92 241.973 1310.02 243.13 1308.48 244.673C1306.99 246.216 1305.85 248.093 1305.08 250.305C1304.36 252.516 1303.95 255.036 1303.85 257.865L1299.37 256.477C1299.37 251.076 1299.91 246.113 1300.99 241.587C1302.07 237.009 1303.64 233.023 1305.7 229.629C1307.81 226.234 1310.38 223.611 1313.41 221.76C1316.45 219.908 1319.92 218.982 1323.83 218.982C1325.06 218.982 1326.32 219.085 1327.61 219.291C1328.9 219.445 1329.95 219.677 1330.77 219.985Z" fill="white"/>
</svg>
